<svg width="776" height="427" viewBox="0 0 776 427" fill="none" xmlns="http://www.w3.org/2000/svg">
<path d="M0 374.56H265C268.333 375.06 274.5 374.96 272.5 370.56C270 365.06 275 380.56 259.5 379.56C244 378.56 265 362.56 258 366.06C252.4 368.86 251.333 365.56 251.5 363.56C253.833 360.06 257.7 353.96 254.5 357.56C250.5 362.06 250.5 362.56 248.5 360.06C246.5 357.56 244 355.06 242 350.06C240.4 346.06 241.667 338.727 242.5 335.56L255.5 315.06C259.333 305.06 268.1 284.96 272.5 284.56C278 284.06 278 279.56 285.5 288.06C293 296.56 287.5 296.56 289.5 298.06C291.5 299.56 293.5 300.56 295.5 305.56C297.5 310.56 285.5 346.06 283.5 350.06C281.5 354.06 271.5 368.06 277.5 378.56C283.5 389.06 279.5 355.06 280 351.56C280.5 348.06 312 268.06 314.5 263.56C317 259.06 319 233.56 339.5 223.56C360 213.56 389 197.06 397 198.56C405 200.06 409.5 201.56 418 237.06C426.5 272.56 437.5 296.06 441 307.06C444.5 318.06 447 341.56 444 345.06C441 348.56 383.5 341.56 383.5 338.56C383.5 335.56 392 256.56 373.5 255.56C355 254.56 314.5 261.56 312.5 260.06C310.5 258.56 326.5 217.06 342.5 217.06C358.5 217.06 385 192.06 400 194.06C415 196.06 401 205.06 424.5 194.06C448 183.06 495 166.56 502 158.56C509 150.56 518 146.56 521.5 149.56C525 152.56 532.5 161.56 537.5 163.56C542.5 165.56 549.5 175.06 550.5 177.56C551.5 180.06 555.5 197.56 551.5 194.56C547.5 191.56 529.5 148.06 524.5 141.56C519.5 135.06 529 143.06 515.5 115.56C502 88.0599 520.5 28.0599 533.5 24.5599C546.5 21.0599 573.5 -2.94014 595 1.55986C616.5 6.05986 637 8.55988 647.5 15.5599C658 22.5599 680.5 34.5599 683 39.5599C685.5 44.5599 707 69.0599 701.5 77.0599C696 85.0599 691 84.0599 685.5 82.5599C680 81.0599 659.5 71.0599 652 68.5599C644.5 66.0599 630.5 76.0599 627.5 77.0599C624.5 78.0599 602 89.0599 601 93.5599C600 98.0599 582.5 112.56 578.5 114.06C574.5 115.56 567 115.56 564 114.06C561 112.56 556.5 110.56 552 114.06C547.5 117.56 542 121.56 541 130.56C540 139.56 533 144.56 530 143.06C527 141.56 526.899 137.56 533.5 136.06C540.101 134.56 545 137.06 545 141.56C545 146.06 550.5 161.06 559.5 163.56C568.5 166.06 568.5 169.56 573.5 166.56C578.5 163.56 581.5 151.06 580 149.56C578.5 148.06 575.5 142.56 577 138.56C578.5 134.56 569 139.56 569 136.06C569 132.56 567 130.56 569 129.06C571 127.56 577.5 128.56 572 124.06C566.5 119.56 567 117.56 561.5 119.56C556 121.56 554.5 124.56 555.5 127.56C556.5 130.56 555 131.56 559 131.56C563 131.56 566 130.56 562.5 134.56C559 138.56 554 135.56 556.5 141.56C559 147.56 562.5 152.56 559.5 153.56C556.5 154.56 557.5 158.06 554 150.56C550.5 143.06 546.5 139.06 548.5 131.56C550.5 124.06 547.5 121.56 552 119.56C556.5 117.56 571 112.06 575.5 111.06C580 110.06 583.5 108.56 587 104.56C590.5 100.56 603 87.5599 607 85.0599C611 82.5599 619.5 76.0599 625.5 74.5599C631.5 73.0599 638.5 66.0599 647.5 65.5599C656.5 65.0599 674.5 76.0599 679.5 77.0599C684.5 78.0599 683.5 81.5599 688.5 80.5599C693.5 79.5599 691.039 77.9115 696.5 77.0599C701.961 76.2082 700.5 73.5599 701.5 78.5599C702.5 83.5599 703.5 94.5599 700 101.56C696.5 108.56 687 124.06 688.5 136.06C688.834 138.732 694.846 145.193 696.5 148.5C698 151.5 698.5 154 695.5 156C693.004 157.664 693.459 157.007 687.5 158C681.5 159 683.739 159.087 679.5 158.56C675 158 675.5 154.06 676.5 150.56C677.3 147.76 680.167 145.393 681.5 144.56C683.333 144.727 685.5 146.16 679.5 150.56C672 156.06 674 157.56 673 159.56C672.2 161.16 669.333 166.56 668 169.06C665.333 170.393 661.2 173.06 666 173.06C672 173.06 677 171.06 682 170.06C687 169.06 685.5 169.56 687 166.56C688.5 163.56 687 157.767 684 157.767C681.6 157.767 684.5 164.56 684 167.06C676.167 169.227 660.2 173.76 659 174.56C657.5 175.56 654 182.56 657.5 184.06C661 185.56 659 187.56 662.5 187.56C666 187.56 667.5 188.06 666 184.06C664.5 180.06 660.5 180.56 662.5 177.56C664.5 174.56 665.5 170.06 668 174.56C670 178.16 672.167 184.727 673 187.56C673 190.227 670.9 194.96 662.5 192.56C652 189.56 653.5 188.06 652 186.06C650.5 184.06 647.5 187.56 646.5 190.06C645.5 192.56 651.606 181.06 654 180.06C656.394 179.06 659 195.56 659 198.06C659 200.56 659.5 200.56 657.5 206.06C655.5 211.56 643 214.56 632 215C619.5 215.5 602.874 201.308 606 206.06C615.5 220.5 654.5 201.5 660.5 214.94C663.11 220.787 668.5 243.56 673 247.06C681.5 260.393 698.5 287.76 698.5 290.56C698.5 294.06 666 313.56 668.5 307.56C671 301.56 699.5 289.56 702 292.56C704.5 295.56 721 311.06 726 336.06C731 361.06 737.5 367.06 741 371.06C744.5 375.06 752 382.06 758.5 382.06C765 382.06 767.5 383.06 770.5 387.06C773.5 391.06 776.5 393.06 774.5 393.06C772.5 393.06 753.5 381.06 762 387.06C770.5 393.06 781.5 398.06 768.5 394.56C755.5 391.06 781.5 402.56 758.5 396.56C735.5 390.56 733 386.56 734.5 385.06C736 383.56 762 398.06 757 399.06C752 400.06 715.5 392.56 712 394.56C708.5 396.56 703 404.56 697 403.06C691 401.56 698 405.06 697 396.56C696 388.06 693 390.56 694 383.06C695 375.56 686 363.06 681 359.06C676 355.06 656 328.56 656 324.06C656 319.56 643.5 317.06 641.5 306.06C639.5 295.06 630 273.06 626.5 263.06C623 253.06 636 227.06 638 231.56C640 236.06 627 257.06 611 265.56C595 274.06 582.5 297.06 560 304.56C537.5 312.06 525 344.06 503 337.56C481 331.06 523 253.06 525.5 252.56C528 252.06 488 328.56 501 347.56C514 366.56 513.5 386.06 516 387.56C518.5 389.06 535.5 388.06 543.5 390.06C551.5 392.06 566 394.06 570.5 400.56C575 407.06 579.5 414.06 575 413.56C570.5 413.06 563.5 396.06 566 403.06C568.5 410.06 573.5 419.56 567.5 417.56C561.5 415.56 556.5 412.56 553 408.56C549.5 404.56 532.5 391.56 540 395.06C547.5 398.56 556.5 416.06 555.5 417.56C554.5 419.06 549.5 422.06 545.5 419.06C541.5 416.06 541.5 413.56 537 413.56C532.5 413.56 529.5 416.06 528.5 417.56C527.5 419.06 525 424.56 523 421.06C521 417.56 517.5 410.56 519.5 412.06C521.5 413.56 526.5 425.56 523 426.06C519.5 426.56 512 423.06 510.5 421.06C509 419.06 497.5 421.56 490.5 417.56C483.5 413.56 471 417.06 463 397.06C455 377.06 436 344.56 444 298.06C452 251.56 458 212.06 461 220.06C464 228.06 443 354.06 444 356.06C445 358.06 458.5 389.06 456 393.06C453.5 397.06 436.5 401.06 425.5 397.06C414.5 393.06 371 369.06 370 365.56C369 362.06 360.5 368.06 359.5 374.56C358.5 381.06 355.5 387.06 351.5 392.56C347.5 398.06 342.5 400.06 338 400.06C333.5 400.06 328 403.56 333 398.06C338 392.56 372.5 349.06 370 343.06C367.5 337.06 388.5 331.06 388.5 337.06C388.5 343.06 373.5 340.06 373.5 343.06C373.5 346.06 339.5 386.06 338 388.06C336.5 390.06 330 406.56 316 408.06C302 409.56 280 405.06 272.5 386.56M663 119.56C643 121.06 674.5 112.56 676.5 114.06C679 114.52 682.2 115.852 675 117.5C667.8 119.148 664 119.56 663 119.56ZM675 124.06C677 124.5 673.5 131.5 672 132.56C669.55 134.291 660 133.5 654.5 133.5C649 133.5 665.664 122.005 675 124.06Z" stroke="black"/>
</svg>
