<svg width="610" height="426" viewBox="0 0 610 426" fill="none" xmlns="http://www.w3.org/2000/svg">
<path d="M-166 373.56H99C102.333 374.06 108.5 373.96 106.5 369.56C104 364.06 109 379.56 93.5 378.56C78 377.56 99 361.56 92 365.06C86.4 367.86 85.3333 364.56 85.5 362.56C87.8333 359.06 91.7 352.96 88.5 356.56C84.5 361.06 84.5 361.56 82.5 359.06C80.5 356.56 78 354.06 76 349.06C74.4 345.06 75.6667 337.727 76.5 334.56L89.5 314.06C93.3333 304.06 102.1 283.96 106.5 283.56C112 283.06 112 278.56 119.5 287.06C127 295.56 121.5 295.56 123.5 297.06C125.5 298.56 127.5 299.56 129.5 304.56C131.5 309.56 119.5 345.06 117.5 349.06C115.5 353.06 105.5 367.06 111.5 377.56C117.5 388.06 113.5 354.06 114 350.56C114.5 347.06 146 267.06 148.5 262.56M148.5 262.56C151 258.06 153 232.56 173.5 222.56C194 212.56 223 196.06 231 197.56M148.5 262.56C150.5 264.06 189 253.56 207.5 254.56C226 255.56 217.5 334.56 217.5 337.56C217.5 340.56 275 347.56 278 344.06C281 340.56 278.5 317.06 275 306.06C271.5 295.06 260.5 271.56 252 236.06C243.5 200.56 239 199.06 231 197.56M231 197.56C254.5 186.56 329 165.56 336 157.56C343 149.56 357.5 149 361 152C364.5 155 366.5 160.56 371.5 162.56C376.5 164.56 383.5 176.5 384.5 179C385.5 181.5 389.5 196.56 385.5 193.56C381.5 190.56 363.5 147.06 358.5 140.56C353.5 134.06 363 142.06 349.5 114.56C336 87.0599 354.5 27.0599 367.5 23.5599C380.5 20.0599 407.5 -3.94014 429 0.559857C450.5 5.05986 471 7.55988 481.5 14.5599C492 21.5599 514.5 33.5599 517 38.5599C519.5 43.5599 541 68.0599 535.5 76.0599C530 84.0599 525 83.0599 519.5 81.5599C514 80.0599 493.5 70.0599 486 67.5599C478.5 65.0599 464.5 75.0599 461.5 76.0599C458.5 77.0599 436 88.0599 435 92.5599C434 97.0599 416.5 111.56 412.5 113.06C408.5 114.56 401 114.56 398 113.06C395 111.56 390.5 109.56 386 113.06C381.5 116.56 376 120.56 375 129.56C374 138.56 367 143.56 364 142.06C361 140.56 360.899 136.56 367.5 135.06C374.101 133.56 359.5 121 359.5 125.5M412.5 166.06C407.5 169.06 396.101 164.929 388.5 159.5C381.5 154.5 379.5 153.5 377 147.5C374.5 141.5 370.592 129.461 372.5 124.5C375 118 375.439 119.573 378 116.5C385.5 107.5 381.5 111.5 386 108C389.182 105.525 411.5 120 409.5 121.5M535.5 77.5599C536.5 82.5599 537.5 93.5599 534 100.56C530.5 107.56 521 123.06 522.5 135.06C522.834 137.732 528.846 144.193 530.5 147.5C532 150.5 532.5 153 529.5 155C527.004 156.664 527.459 156.007 521.5 157C515.5 158 517.739 158.087 513.5 157.56C509 157 509.5 153.06 510.5 149.56C511.3 146.76 514.167 144.393 515.5 143.56C517.333 143.727 515.944 147.6 509.944 152M500 172.06C506 172.06 511 170.06 516 169.06C521 168.06 519.5 168.56 521 165.56C522.5 162.56 521 156.767 518 156.767C515.6 156.767 518.5 163.56 518 166.06C510.167 168.227 494.2 172.76 493 173.56C491.5 174.56 488 181.56 491.5 183.06C495 184.56 493 186.56 496.5 186.56C500 186.56 501.5 187.06 500 183.06C498.5 179.06 494.5 179.56 496.5 176.56C498.5 173.56 499.5 169.06 502 173.56C504 177.16 506.167 183.727 507 186.56C507 189.227 499.5 191.56 496.5 191.56C493.5 191.56 492.301 192.5 488.5 189.5C486.538 187.951 486.694 187.602 486 185C484 177.5 483.474 178.406 486 179C490 179.94 493 194.56 493 197.06C493 199.56 493.5 199.56 491.5 205.06C489.5 210.56 477 213.56 466 214C453.5 214.5 436.874 200.308 440 205.06C449.5 219.5 488.5 200.5 494.5 213.94C497.11 219.787 502.5 242.56 507 246.06C515.5 259.393 532.5 286.76 532.5 289.56C532.5 293.06 500 312.56 502.5 306.56C505 300.56 533.5 288.56 536 291.56C538.5 294.56 555 310.06 560 335.06C565 360.06 571.5 366.06 575 370.06C578.5 374.06 586 381.06 592.5 381.06C599 381.06 601.5 382.06 604.5 386.06C607.5 390.06 610.5 392.06 608.5 392.06C606.5 392.06 587.5 380.06 596 386.06C604.5 392.06 615.5 397.06 602.5 393.56C589.5 390.06 615.5 401.56 592.5 395.56C569.5 389.56 567 385.56 568.5 384.06C570 382.56 596 397.06 591 398.06C586 399.06 549.5 391.56 546 393.56C542.5 395.56 537 403.56 531 402.06C525 400.56 532 404.06 531 395.56C530 387.06 527 389.56 528 382.06C529 374.56 520 362.06 515 358.06C510 354.06 490 327.56 490 323.06C490 318.56 477.5 316.06 475.5 305.06C473.5 294.06 464 272.06 460.5 262.06C457 252.06 470 226.06 472 230.56C474 235.06 461 256.06 445 264.56C429 273.06 416.5 296.06 394 303.56C371.5 311.06 359 343.06 337 336.56C315 330.06 357 252.06 359.5 251.56C362 251.06 322 327.56 335 346.56C348 365.56 347.5 385.06 350 386.56C352.5 388.06 369.5 387.06 377.5 389.06C385.5 391.06 400 393.06 404.5 399.56C409 406.06 413.5 413.06 409 412.56C404.5 412.06 397.5 395.06 400 402.06C402.5 409.06 407.5 418.56 401.5 416.56C395.5 414.56 390.5 411.56 387 407.56C383.5 403.56 366.5 390.56 374 394.06C381.5 397.56 390.5 415.06 389.5 416.56C388.5 418.06 383.5 421.06 379.5 418.06C375.5 415.06 375.5 412.56 371 412.56C366.5 412.56 363.5 415.06 362.5 416.56C361.5 418.06 359 423.56 357 420.06C355 416.56 351.5 409.56 353.5 411.06C355.5 412.56 360.5 424.56 357 425.06C353.5 425.56 346 422.06 344.5 420.06C343 418.06 331.5 420.56 324.5 416.56C317.5 412.56 305 416.06 297 396.06C289 376.06 270 343.56 278 297.06C286 250.56 292 211.06 295 219.06C298 227.06 277 353.06 278 355.06C279 357.06 292.5 388.06 290 392.06C287.5 396.06 270.5 400.06 259.5 396.06C248.5 392.06 205 368.06 204 364.56C203 361.06 194.5 367.06 193.5 373.56C192.5 380.06 189.5 386.06 185.5 391.56C181.5 397.06 176.5 399.06 172 399.06C167.5 399.06 162 402.56 167 397.06C172 391.56 206.5 348.06 204 342.06C201.5 336.06 222.5 330.06 222.5 336.06C222.5 342.06 207.5 339.06 207.5 342.06C207.5 345.06 173.5 385.06 172 387.06C170.5 389.06 164 405.56 150 407.06C136 408.56 114 404.06 106.5 385.56M497 118.56C477 120.06 508.5 111.56 510.5 113.06C513 113.52 516.2 114.852 509 116.5C501.8 118.148 498 118.56 497 118.56ZM507.5 124.5C509.5 124.94 506.357 129.262 505 130.5C500 135.06 493.054 128.784 489 132.5C483 138 498.164 122.446 507.5 124.5Z" stroke="black"/>
<path d="M508 125C504.811 120.748 489.5 131.4 488 133.5C492.5 129.5 499 132.5 501 132.5C503.5 132.5 509.5 127 508 125Z" fill="#D9D9D9" stroke="black"/>
<path d="M495 116C506.2 112 511.667 113 513 114C509.8 116.8 502 118.5 498.5 119C492.667 119.667 483.8 120 495 116Z" fill="#D9D9D9" stroke="black"/>
</svg>
