<svg width="134" height="85" viewBox="0 0 134 85" fill="none" xmlns="http://www.w3.org/2000/svg">
<path d="M54.3407 45L90.6091 6.14711C96.2489 0.0790529 105.74 -0.268084 111.808 5.37176L128.655 21.0299C134.723 26.6698 135.07 36.1609 129.431 42.2289L95.391 78.8529C89.7512 84.921 80.2601 85.2681 74.192 79.6283L51.5 58.5" stroke="black"/>
<path d="M70.5 29H49.5C46.6667 29.1667 39.6 30.9 34 36.5C28.4 42.1 9.33333 59.8333 0.5 68M49.5 45H75C89.5 45 88.6 56.5 75 56.5C61.4 56.5 51.3333 57.8333 48 58.5C47.6667 61.6667 44.4 68 34 68M60.5 68C51.8333 75.6667 35.5 88.5 25.5 78.5" stroke="black"/>
</svg>
