<svg width="781" height="491" viewBox="0 0 781 491" fill="none" xmlns="http://www.w3.org/2000/svg">
<path d="M367.641 47.2782C407.641 81.2782 565.641 119.278 671.641 125.278C688.308 151.945 721.241 216.078 719.641 259.278C717.641 313.278 719.641 335.278 703.641 395.278C687.641 455.278 351.641 423.278 245.641 407.278C139.641 391.278 155.641 339.278 127.641 293.278C99.6412 247.278 71.6412 191.278 65.6412 155.278C59.6412 119.278 327.641 13.2782 367.641 47.2782Z" stroke="black"/>
<path d="M245.641 35.2782C285.641 69.2782 651.641 149.278 757.641 155.278C774.308 181.945 621.241 298.078 619.641 341.278C617.641 395.278 567.641 405.278 551.641 465.278C535.641 525.278 355.641 319.278 249.641 303.278C143.641 287.278 31.6411 315.278 3.6411 269.278C-24.3589 223.278 179.641 213.278 173.641 177.278C167.641 141.278 205.641 1.2782 245.641 35.2782Z" stroke="black"/>
<path d="M551.641 27C591.641 61 724 143 780 269.278C756 417 693.6 437.8 692 481C690 535 588 323 484 307C422.625 297.558 190 411 84.0001 395C-21.9999 379 88 299 60 253C32 207 156 63 150 27C144 -9 511.641 -6.99998 551.641 27Z" stroke="black"/>
</svg>
