<svg width="1806" height="847" viewBox="0 0 1806 847" fill="none" xmlns="http://www.w3.org/2000/svg">
<path d="M562.344 393.513C425.15 408.203 412.901 398.409 114.015 525.723C78.8997 569.794 7.19977 664.3 1.32004 689.763C-6.02961 721.592 114.015 758.317 278.157 760.765C442.299 763.214 366.353 790.146 562.344 829.319C758.334 868.493 652.989 831.767 966.575 790.145C1280.16 748.523 1138.07 750.972 1326.71 645.693C1515.35 540.413 1640.29 442.48 1728.49 393.513C1816.68 344.546 1843.45 8.73886 1728.49 1.77594C1485.95 -12.9142 1201.76 185.402 1052.32 222.128C971.82 241.911 699.537 378.822 562.344 393.513Z" stroke="black"/>
<path d="M485.427 234.616C343.335 249.86 536.874 190.462 237.992 318.018C202.877 362.172 131.178 456.858 125.298 482.37C117.948 514.259 -102.539 739.936 61.6016 742.389C225.742 744.842 113.049 742.389 309.038 781.637C505.026 820.885 382.533 823.338 696.115 781.637C1009.7 739.936 911.703 742.389 1004.8 661.44C1125.5 556.486 1112.59 600.114 1090.54 482.37C1070.55 375.63 1088.86 350.366 990.098 291.035C818.608 188.009 889.654 202.727 696.115 202.727C583.315 202.727 622.619 219.898 485.427 234.616Z" stroke="black"/>
</svg>
