<svg width="132" height="19" viewBox="0 0 132 19" fill="none" xmlns="http://www.w3.org/2000/svg">
<path d="M1 0.999991C20.3148 0.999991 39.6296 0.999991 58.9444 0.999991C82.7147 0.999991 106.936 0.120963 130.556 3.41666C131.537 3.55367 128.574 3.50359 127.583 3.52777C120.749 3.69446 113.921 4.27145 107.111 4.83332C84.9888 6.65859 62.2627 6.78221 40.3889 10.7222C39.1203 10.9507 27.9954 13 35.3333 13C56.7963 13 78.2593 13 99.7222 13C106.846 13 114.441 12.3159 121.556 13C122.786 13.1183 119.112 13.3748 117.889 13.5555C100.424 16.1362 126.731 12.2949 106.722 15.2778C94.5197 17.0969 82.2973 17.6936 70 18.5" stroke="black" stroke-linecap="round"/>
</svg>
