<svg width="11" height="14" viewBox="0 0 11 14" fill="none" xmlns="http://www.w3.org/2000/svg">
<ellipse cx="5.7469" cy="6.42858" rx="3.28571" ry="3.14286" fill="black"/>
<ellipse cx="5.60406" cy="10.2857" rx="1.71429" ry="1.57143" fill="black"/>
<path d="M8.17554 5C9.67172 4.96521 10.0327 3.98534 10.0327 2.65079C10.0327 1.87521 9.67141 1.26053 8.88982 1" stroke="black" stroke-linecap="round"/>
<path d="M7.88977 6.42857C8.41042 6.79609 9.44013 7.31803 10.0802 6.85714C10.3851 6.63766 10.1755 5.33003 10.1755 5" stroke="black" stroke-linecap="round"/>
<path d="M7.31836 9.02502C8.22366 9.02502 9.80509 8.77092 10.1755 9.88217" stroke="black" stroke-linecap="round"/>
<path d="M7.03271 10.1429C8.71372 10.1772 9.03271 11.588 9.03271 13" stroke="black" stroke-linecap="round"/>
<path d="M3.38867 5C1.89249 4.96521 1.53153 3.98534 1.53153 2.65079C1.53153 1.87521 1.8928 1.26053 2.67439 1" stroke="black" stroke-linecap="round"/>
<path d="M3.38867 6.28567C2.86803 6.65319 1.83832 7.17513 1.1982 6.71424C0.893363 6.49476 1.10296 5.18714 1.10296 4.8571" stroke="black" stroke-linecap="round"/>
<path d="M3.96008 8.88216C3.05478 8.88216 1.47336 8.62805 1.10294 9.7393" stroke="black" stroke-linecap="round"/>
<path d="M3.88977 10.1429C2.20877 10.1772 1.88977 11.588 1.88977 13" stroke="black" stroke-linecap="round"/>
</svg>
