
      <svg
        viewBox="0 0 800 500"
        preserveAspectRatio="none"
        xmlns="http://www.w3.org/2000/svg"
        xmlnsXlink="http://www.w3.org/1999/xlink"
        width="100%"
        id="blobSvg"
      >
        <g transform="translate(161.1367645263672, 2.9899215698242188)">
          <path
            class="blob"
            d="M434,301.5Q446,353,404,382.5Q362,412,320,445Q278,478,230.5,452.5Q183,427,147.5,399.5Q112,372,70.5,338.5Q29,305,46,254.5Q63,204,93,170.5Q123,137,151.5,101.5Q180,66,229,43Q278,20,330,39Q382,58,391.5,114.5Q401,171,411.5,210.5Q422,250,434,301.5Z"
            fill="none"
            stroke-width="7px"
            stroke="#000"
          ></path>
        </g>
      </svg>
      <svg
        viewBox="0 0 800 500"
        preserveAspectRatio="none"
        xmlns="http://www.w3.org/2000/svg"
        xmlnsXlink="http://www.w3.org/1999/xlink"
        width="100%"
        id="blobSvg"
      >
        <g transform="translate(161.1367645263672, 2.9899215698242188)">
          <path
            class="blob"
            d="M434,301.5Q446,353,404,382.5Q362,412,320,445Q278,478,230.5,452.5Q183,427,147.5,399.5Q112,372,70.5,338.5Q29,305,46,254.5Q63,204,93,170.5Q123,137,151.5,101.5Q180,66,229,43Q278,20,330,39Q382,58,391.5,114.5Q401,171,411.5,210.5Q422,250,434,301.5Z"
            fill="#000"
          ></path>
        </g>
      </svg>
      <svg
        viewBox="0 0 800 500"
        preserveAspectRatio="none"
        xmlns="http://www.w3.org/2000/svg"
        width="100%"
        id="blobSvg"
      >
        <g transform="translate(138.7066650390625, 14.816017150878906)">
          <path
            class="blob"
            d="M448.5,295.5Q422,341,398.5,386Q375,431,324,437Q273,443,227,438Q181,433,138,410Q95,387,86.5,339.5Q78,292,62,246Q46,200,64.5,151Q83,102,127,72Q171,42,224.5,32Q278,22,313.5,64.5Q349,107,402.5,124.5Q456,142,465.5,196Q475,250,448.5,295.5Z"
            fill="#000"
          ></path>
        </g>
      </svg>
      <svg
        viewBox="0 0 800 500"
        preserveAspectRatio="none"
        xmlns="http://www.w3.org/2000/svg"
        width="100%"
        id="blobSvg"
      >
        <g transform="translate(156.12862396240234, -11.064529418945312)">
          <path
            class="blob"
            d="M435,305.5Q461,361,418.5,397Q376,433,326,448.5Q276,464,235.5,430Q195,396,146,391Q97,386,61,345.5Q25,305,60.5,258.5Q96,212,101.5,168Q107,124,142,91Q177,58,223,74Q269,90,313,92.5Q357,95,406.5,118.5Q456,142,432.5,196Q409,250,435,305.5Z"
            fill="#000"
          ></path>
        </g>
      </svg>
      <svg
        viewBox="0 0 800 500"
        preserveAspectRatio="none"
        xmlns="http://www.w3.org/2000/svg"
        width="100%"
        id="blobSvg"
      >
        <g transform="translate(129.76215362548828, -16.46666717529297)">
          <path
            class="blob"
            d="M444.5,289Q398,328,380.5,370.5Q363,413,317,419Q271,425,216.5,453.5Q162,482,119.5,443Q77,404,69.5,350Q62,296,75,253Q88,210,89.5,159.5Q91,109,136.5,90Q182,71,227.5,68Q273,65,317,77Q361,89,398.5,120.5Q436,152,463.5,201Q491,250,444.5,289Z"
            fill="none"
            stroke-width="7px"
            stroke="#000"
          ></path>
        </g>
      </svg>