<svg width="925" height="427" viewBox="0 0 925 427" fill="none" xmlns="http://www.w3.org/2000/svg">
<path d="M0 374.56H414C417.333 375.06 423.5 374.96 421.5 370.56C419 365.06 424 380.56 408.5 379.56C393 378.56 414 362.56 407 366.06C401.4 368.86 400.333 365.56 400.5 363.56C402.833 360.06 406.7 353.96 403.5 357.56C399.5 362.06 399.5 362.56 397.5 360.06C395.5 357.56 393 355.06 391 350.06C389.4 346.06 390.667 338.727 391.5 335.56L404.5 315.06C408.333 305.06 417.1 284.96 421.5 284.56C427 284.06 427 279.56 434.5 288.06C442 296.56 436.5 296.56 438.5 298.06C440.5 299.56 442.5 300.56 444.5 305.56M432.5 350.06C430.5 354.06 420.5 368.06 426.5 378.56C432.5 389.06 428.5 355.06 429 351.56C429.5 348.06 461 268.06 463.5 263.56M463.5 263.56C466 259.06 468 233.56 488.5 223.56C509 213.56 538 197.06 546 198.56M463.5 263.56C465.5 265.06 504 254.56 522.5 255.56C541 256.56 532.5 335.56 532.5 338.56C532.5 341.56 590 348.56 593 345.06C596 341.56 593.5 318.06 590 307.06C586.5 296.06 575.5 272.56 567 237.06C558.5 201.56 554 200.06 546 198.56M546 198.56C569.5 187.56 644 166.56 651 158.56C658 150.56 672.5 150 676 153C679.5 156 681.5 161.56 686.5 163.56C691.5 165.56 698.5 177.5 699.5 180C700.5 182.5 704.5 197.56 700.5 194.56C696.5 191.56 678.5 148.06 673.5 141.56C668.5 135.06 678 143.06 664.5 115.56C651 88.0599 669.5 28.0599 682.5 24.5599C695.5 21.0599 722.5 -2.94014 744 1.55986C765.5 6.05986 786 8.55988 796.5 15.5599C807 22.5599 829.5 34.5599 832 39.5599C834.5 44.5599 856 69.0599 850.5 77.0599C845 85.0599 840 84.0599 834.5 82.5599C829 81.0599 808.5 71.0599 801 68.5599C793.5 66.0599 779.5 76.0599 776.5 77.0599C773.5 78.0599 751 89.0599 750 93.5599C749 98.0599 731.5 112.56 727.5 114.06C723.5 115.56 716 115.56 713 114.06C710 112.56 705.5 110.56 701 114.06C696.5 117.56 691 121.56 690 130.56C689 139.56 682 144.56 679 143.06C676 141.56 675.899 137.56 682.5 136.06C689.101 134.56 674.5 122 674.5 126.5M727.5 167.06C722.5 170.06 711.101 165.929 703.5 160.5C696.5 155.5 694.5 154.5 692 148.5C689.5 142.5 685.592 130.461 687.5 125.5C690 119 690.439 120.573 693 117.5C700.5 108.5 696.5 112.5 701 109C704.182 106.525 726.5 121 724.5 122.5M850.5 78.5599C851.5 83.5599 852.5 94.5599 849 101.56C845.5 108.56 836 124.06 837.5 136.06C837.834 138.732 843.846 145.193 845.5 148.5C847 151.5 847.5 154 844.5 156C842.004 157.664 842.459 157.007 836.5 158C830.5 159 832.739 159.087 828.5 158.56C824 158 824.5 154.06 825.5 150.56C826.3 147.76 829.167 145.393 830.5 144.56C832.333 144.727 830.944 148.6 824.944 153M815 173.06C821 173.06 826 171.06 831 170.06C836 169.06 834.5 169.56 836 166.56C837.5 163.56 836 157.767 833 157.767C830.6 157.767 833.5 164.56 833 167.06C825.167 169.227 809.2 173.76 808 174.56C806.5 175.56 803 182.56 806.5 184.06C810 185.56 808 187.56 811.5 187.56C815 187.56 816.5 188.06 815 184.06C813.5 180.06 809.5 180.56 811.5 177.56C813.5 174.56 814.5 170.06 817 174.56C819 178.16 821.167 184.727 822 187.56C822 190.227 814.5 192.56 811.5 192.56C808.5 192.56 807.301 193.5 803.5 190.5C801.538 188.951 801.694 188.602 801 186C799 178.5 798.474 179.406 801 180C805 180.94 808 195.56 808 198.06C808 200.56 808.5 200.56 806.5 206.06C804.5 211.56 792 214.56 781 215C768.5 215.5 751.874 201.308 755 206.06M808 215C810.61 220.847 817.5 243.56 822 247.06C830.5 260.393 847.5 287.76 847.5 290.56C847.5 294.06 815 313.56 817.5 307.56C820 301.56 848.5 289.56 851 292.56C853.5 295.56 870 311.06 875 336.06C880 361.06 886.5 367.06 890 371.06C893.5 375.06 901 382.06 907.5 382.06C914 382.06 916.5 383.06 919.5 387.06C922.5 391.06 925.5 393.06 923.5 393.06C921.5 393.06 902.5 381.06 911 387.06C919.5 393.06 930.5 398.06 917.5 394.56C904.5 391.06 930.5 402.56 907.5 396.56C884.5 390.56 882 386.56 883.5 385.06C885 383.56 911 398.06 906 399.06C901 400.06 864.5 392.56 861 394.56C857.5 396.56 852 404.56 846 403.06C840 401.56 847 405.06 846 396.56C845 388.06 842 390.56 843 383.06C844 375.56 835 363.06 830 359.06C825 355.06 805 328.56 805 324.06C805 319.56 792.5 317.06 790.5 306.06C788.5 295.06 779 273.06 775.5 263.06C772 253.06 774.5 239 776.5 243.5M769 263.06C753 271.56 731.5 297.06 709 304.56C686.5 312.06 669.72 337.5 647.72 331M674.5 252.56C677 252.06 637 328.56 650 347.56C663 366.56 662.5 386.06 665 387.56C667.5 389.06 684.5 388.06 692.5 390.06C700.5 392.06 715 394.06 719.5 400.56C724 407.06 728.5 414.06 724 413.56C719.5 413.06 712.5 396.06 715 403.06C717.5 410.06 722.5 419.56 716.5 417.56C710.5 415.56 705.5 412.56 702 408.56C698.5 404.56 681.5 391.56 689 395.06C696.5 398.56 705.5 416.06 704.5 417.56C703.5 419.06 698.5 422.06 694.5 419.06C690.5 416.06 690.5 413.56 686 413.56C681.5 413.56 678.5 416.06 677.5 417.56C676.5 419.06 674 424.56 672 421.06C670 417.56 666.5 410.56 668.5 412.06C670.5 413.56 675.5 425.56 672 426.06C668.5 426.56 661 423.06 659.5 421.06C658 419.06 646.5 421.56 639.5 417.56C632.5 413.56 620 417.06 612 397.06C604 377.06 585 344.56 593 298.06C601 251.56 607 212.06 610 220.06M593 356.06C594 358.06 607.5 389.06 605 393.06C602.5 397.06 585.5 401.06 574.5 397.06C563.5 393.06 520 369.06 519 365.56C518 362.06 509.5 368.06 508.5 374.56C507.5 381.06 504.5 387.06 500.5 392.56C496.5 398.06 491.5 400.06 487 400.06C482.5 400.06 477 403.56 482 398.06C487 392.56 521.5 349.06 519 343.06C516.5 337.06 537.5 331.06 537.5 337.06C537.5 343.06 522.5 340.06 522.5 343.06C522.5 346.06 488.5 386.06 487 388.06C485.5 390.06 479 406.56 465 408.06C451 409.56 429 405.06 421.5 386.56M812 119.56C792 121.06 823.5 112.56 825.5 114.06C828 114.52 831.2 115.852 824 117.5C816.8 119.148 813 119.56 812 119.56ZM822.5 125.5C824.5 125.94 821.357 130.262 820 131.5C815 136.06 808.054 129.784 804 133.5C798 139 813.164 123.446 822.5 125.5Z" stroke="black"/>
</svg>
