<svg width="1580" height="594" viewBox="0 0 1580 594" fill="none" xmlns="http://www.w3.org/2000/svg">
<path d="M1578 592C1576.98 574.895 1571.36 559.427 1566.11 543.222C1559.83 523.817 1555.15 504.489 1543.33 487.556C1526.39 463.27 1507.29 438.125 1480.78 423.778C1460.36 412.732 1437.41 407.78 1414.89 403.111C1386.15 397.151 1356.97 391.962 1327.78 388.778C1289.68 384.622 1248.35 383.209 1210.11 386.778C1173.1 390.232 1138.93 408.969 1108.22 428.778C1068.07 454.683 1028.77 479.947 981.778 491.444C926.454 504.981 869.128 505.072 812.556 502.444C721.025 498.194 633.832 454.937 565.778 394.444C544.289 375.344 530.538 351.337 513.111 328.889C500.244 312.314 482.929 306.749 464 299.111C431.117 285.843 400.246 267.795 368.667 251.778C332.258 233.311 297.528 212.767 263.333 190.444C221.802 163.332 188.715 128.575 152.222 95.3333C107.146 54.2726 57.1861 26.7386 2 2" stroke="black" stroke-width="3" stroke-linecap="round"/>
</svg>
